<?xml version="1.0" encoding="UTF-8"?>
<svg width="70px" height="70px" viewBox="0 0 70 70" version="1.1" xmlns="http://www.w3.org/2000/svg" xmlns:xlink="http://www.w3.org/1999/xlink">
    <!-- Generator: Sketch 47 (45396) - http://www.bohemiancoding.com/sketch -->
    <title>Tab / Capsules Copy</title>
    <desc>Created with Sketch.</desc>
    <defs></defs>
    <g id="Symbols"  stroke-width="1" fill-rule="evenodd">
        <g id="Tab-/-Capsules-Copy" stroke-width="0.2">
            <path d="M48.76,45.673 C48.76,45.823 48.692,45.939 48.491,45.939 C48.291,45.939 21.892,45.952 21.892,45.952 C21.818,45.952 21.75,45.923 21.7,45.874 C21.651,45.826 21.62,45.759 21.62,45.687 L21.62,45.286 C21.62,45.139 21.742,45.021 21.891,45.021 L35.796,45.015 L35.796,45.014 L40.188,45.011 L40.188,45.012 L40.778,45.012 L40.778,45.011 L46.649,45.009 L46.846,45.009 L48.49,45.007 C48.653,45.023 48.742,45.111 48.76,45.273 L48.76,45.673 Z M24.669,43.037 C24.711,42.796 24.852,41.809 25.046,40.43 C25.148,39.707 25.263,38.879 25.385,38.001 C25.425,37.708 25.467,37.41 25.508,37.109 C25.925,34.094 26.385,30.737 26.61,29.105 C26.655,28.778 26.69,28.521 26.714,28.349 L37.249,28.345 C37.249,28.344 37.25,28.343 37.25,28.342 L37.251,28.342 C37.25,28.343 37.25,28.343 37.25,28.344 L38.086,28.344 C38.086,28.343 38.086,28.343 38.087,28.342 L43.649,28.341 C43.779,29.253 43.905,30.166 44.031,31.078 C44.237,32.562 44.442,34.047 44.647,35.532 C44.707,35.97 44.768,36.409 44.828,36.842 C44.994,38.035 45.162,39.227 45.332,40.419 C45.451,41.281 45.553,41.99 45.621,42.46 C45.65,42.648 45.672,42.797 45.689,42.903 C45.697,42.956 45.703,42.998 45.708,43.029 C45.793,43.494 45.988,43.99 46.206,44.405 L38.428,44.408 L38.428,44.409 L34.155,44.412 L33.448,44.412 L33.448,44.413 L24.176,44.417 C24.356,44.071 24.573,43.577 24.669,43.037 L24.669,43.037 Z M26.837,27.717 C26.891,27.571 26.938,27.512 27.028,27.435 C27.117,27.357 27.272,27.27 27.489,27.142 C28.138,26.756 28.806,26.401 29.467,26.037 C30.301,25.577 31.108,25.136 31.295,25.031 C31.479,24.928 31.655,24.816 31.83,24.736 C31.917,24.695 32.003,24.663 32.09,24.64 C32.176,24.617 32.263,24.605 32.352,24.605 L38.013,24.602 C38.101,24.602 38.187,24.615 38.273,24.637 C38.36,24.66 38.446,24.693 38.533,24.734 C38.712,24.832 38.891,24.929 39.069,25.027 L39.177,25.088 L39.914,25.503 C39.973,25.534 40.035,25.568 40.098,25.601 C40.241,25.678 40.39,25.757 40.521,25.828 C40.57,25.854 40.614,25.878 40.656,25.901 C40.684,25.916 40.709,25.929 40.733,25.942 C40.746,25.949 40.758,25.956 40.77,25.962 C40.795,25.976 40.818,25.988 40.836,25.998 C40.844,26.003 40.85,26.006 40.857,26.009 C40.871,26.017 40.886,26.026 40.895,26.03 C41.104,26.145 41.314,26.26 41.517,26.373 C41.923,26.597 42.298,26.805 42.566,26.957 C42.699,27.032 42.807,27.093 42.878,27.135 C43.167,27.305 43.331,27.403 43.413,27.504 C43.455,27.554 43.491,27.612 43.528,27.71 C43.54,27.746 43.553,27.792 43.565,27.84 L26.8,27.842 C26.812,27.798 26.824,27.753 26.837,27.717 L26.837,27.717 Z M49.118,44.66 C48.957,44.503 48.737,44.405 48.49,44.405 L46.908,44.405 C46.715,44.081 46.551,43.734 46.435,43.374 C46.387,43.228 46.348,43.078 46.322,42.927 C46.317,42.9 46.31,42.861 46.301,42.81 C46.165,41.989 46.061,41.162 45.946,40.338 C45.836,39.564 45.711,38.67 45.578,37.723 C45.447,36.777 45.308,35.777 45.171,34.795 C45.08,34.14 44.99,33.492 44.905,32.872 C44.862,32.562 44.82,32.259 44.779,31.965 C44.698,31.378 44.621,30.828 44.553,30.336 C44.382,29.106 44.262,28.238 44.235,28.05 C44.202,27.839 44.167,27.666 44.115,27.512 C44.031,27.284 43.9,27.101 43.739,26.97 C43.659,26.902 43.575,26.846 43.486,26.791 C43.397,26.736 43.301,26.682 43.198,26.62 C42.97,26.486 42.431,26.185 41.822,25.849 C41.618,25.737 41.407,25.622 41.198,25.506 C41.17,25.492 41.088,25.446 40.978,25.384 C40.812,25.292 39.983,24.837 39.981,24.838 C39.684,24.675 39.457,24.551 39.373,24.504 C39.213,24.417 39.024,24.293 38.801,24.19 C38.574,24.087 38.313,24 38.013,24 L32.352,24.003 C31.841,24.003 31.417,24.269 30.988,24.509 C30.942,24.534 30.858,24.581 30.743,24.644 C30.629,24.707 30.485,24.786 30.32,24.876 C29.934,25.088 29.548,25.299 29.162,25.512 C28.496,25.881 27.82,26.237 27.166,26.629 C27.03,26.71 26.905,26.779 26.79,26.855 C26.675,26.931 26.571,27.014 26.473,27.125 C26.379,27.236 26.305,27.369 26.252,27.521 C26.225,27.597 26.21,27.701 26.19,27.79 C26.17,27.879 26.145,27.953 26.128,28.059 C26.121,28.109 26.108,28.208 26.088,28.348 C25.987,29.097 25.883,29.846 25.781,30.595 C25.594,31.957 25.353,33.708 25.112,35.462 C24.886,37.09 24.662,38.719 24.434,40.348 C24.385,40.691 24.34,41.011 24.299,41.301 C24.176,42.173 24.088,42.776 24.06,42.935 C24.024,43.142 23.962,43.35 23.891,43.544 C23.82,43.738 23.739,43.92 23.661,44.074 C23.59,44.215 23.526,44.332 23.473,44.417 L21.891,44.418 C21.4,44.419 21,44.807 21,45.286 L21,45.687 C21.002,46.045 21.225,46.354 21.545,46.486 C21.652,46.53 21.769,46.554 21.892,46.554 L29.637,46.55 C29.589,46.549 29.544,46.538 29.502,46.521 C29.544,46.538 29.589,46.548 29.637,46.55 L48.491,46.541 C48.51,46.541 48.526,46.533 48.544,46.532 C48.732,46.52 48.904,46.457 49.038,46.346 C49.187,46.226 49.293,46.057 49.339,45.866 L49.34,45.865 C49.355,45.802 49.378,45.741 49.378,45.673 L49.378,45.273 C49.378,45.034 49.28,44.817 49.118,44.66 L49.118,44.66 Z" id="Fill-1"></path>
        </g>
    </g>
</svg>